<?xml version="1.0" encoding="UTF-8"?>
<svg xmlns="http://www.w3.org/2000/svg" viewBox="0 0 1366 768">
  <defs>
    <style>
      .cls-1 {
        stroke-linecap: round;
        stroke-width: 2px;
      }

      .cls-1, .cls-2 {
        fill: none;
        stroke: #000;
        stroke-miterlimit: 10;
      }

      .cls-3 {
        fill: #d8d1d7;
        stroke-width: 0px;
      }

      .cls-4 {
        fill: #f7931e;
        font-family: MyriadPro-Regular, 'Myriad Pro';
        font-size: 200.45px;
      }

      .cls-5 {
        letter-spacing: -.01em;
      }
    </style>
  </defs>
  <g id="Calque_3" data-name="Calque 3">
    <path class="cls-3" d="M536.76,395c-13.57,31.66-11.39,57.91-13.57,76.88-3.69,32.25-5.3,74.2,1.51,125.11,6.12,45.77,14.77,56.53,24.12,60.3,9.76,3.93,22.87,1.29,30.15-6.03,16.64-16.72,3.44-58.45,0-69.34-4.25-13.43-5.24-19.59-1.51-22.61,2.57-2.08,2.48-3,13.57,1.51,22.76,9.26,41.22,9.17,45.03,9.1,4.4-.08,11.99-.27,21.3-3.07,15.12-4.54,27.77-13.85,27.13-15.07-1.01-1.94-51.72,5.75-48.24,30.15,1.51,10.55,6,33.11,12.06,42.21,10.25,15.41,33.07,38.62,51.25,33.16,6.5-1.95,19.6-4.52,34.67-37.68,0,0,77.64-4.06,79.89-1.51,9.74,11.07,5.28,23.67,18.09,33.16,9.62,7.12,22.42,7.2,30.15,6.03,49.74-7.54,50.63-100.75,51.25-117.58,1.51-40.7-4.52-122.1-24.12-138.68-23.48-19.87-43.71-28.64-70.85-34.67-2.04-.45-2.05-4.48-3.01-6.03-15.07-24.12-19.25-34.33-40.7-43.71-19.76-8.64-21.78-2.37-52.76-7.54-18.09-3.01-1.51-10.55-36.18-12.06-19.64-.85-46-5.74-69.34,33.16-4.52,7.54-9.04,15.07-24.12,21.1-18.4,7.36-37.01,26.7-55.77,43.71Z"/>
  </g>
  <g id="Calque_2" data-name="Calque 2">
    <path class="cls-2" d="M664.95,359.48c5.29-8.29,15.26-21.43,31.89-31.89,5.82-3.66,39.78-24.17,72.89-13.67,49.3,15.64,58.01,87.77,59.22,100.22,5.72,58.64-26.94,102.1-36.44,113.89"/>
    <path class="cls-2" d="M769.72,546.26c-11.02,9.7-21.42,12.62-27.33,13.67-26.12,4.61-54.98-11.68-72.89-41"/>
    <path class="cls-2" d="M528.28,418.7c-5.84,40.3-8.17,74.52-9.11,100.22,0,0-2.79,75.84,22.78,127.56,2.17,4.38,6.3,11.79,13.67,13.67,9.6,2.44,21.48-5.35,27.33-13.67,19.51-27.72-17.35-76.19-4.56-86.56,5.69-4.61,15.8,4.79,31.89,9.11,28.71,7.72,57.18-5.3,77.44-18.22"/>
    <path class="cls-2" d="M537.39,395.92c6.8-8.83,15.73-18.44,27.33-27.33,40.25-30.86,85.66-32.42,104.78-31.89"/>
    <path class="cls-2" d="M614.84,332.14c3.87-6.67,12.19-18.77,27.33-27.33,2.4-1.36,33.87-18.79,63.78-4.56,6.24,2.97,10.79,6.55,13.67,9.11"/>
    <path class="cls-2" d="M828.95,373.14c31.89,4.56,59.22,13.67,68.33,45.56"/>
    <path class="cls-2" d="M906.39,441.48c4.33,18.37,9.02,45.01,9.11,77.44.04,14.13-.78,32.79-4.56,54.67-6.57,38.11-11.09,64.32-31.89,77.44-10.87,6.86-28.31,11.47-41,4.56-14.25-7.77-9.26-22.85-22.78-36.44,0,0-23.23.09-41,0-19.18-.1-41,0-41,0-8.21,8.21-9.11,22.78-13.67,27.33-13.67,13.67-30.63,11.45-50.11,0-31.46-18.5-31.9-60.51-31.89-63.78"/>
    <path class="cls-1" d="M628.5,475.64v15.94"/>
    <text class="cls-4" transform="translate(419.66 231.31)"><tspan class="cls-5" x="0" y="0">Z</tspan><tspan x="108.44" y="0">oocar</tspan></text>
  </g>
</svg>